<svg width="390" height="180" viewBox="0 0 390 180" fill="none" xmlns="http://www.w3.org/2000/svg">
<g clip-path="url(#clip0_120_479)">
<path d="M412.5 13.884V165.403C412.498 167.723 411.9 170.005 410.761 172.042C409.997 173.409 409.002 174.64 407.817 175.683C407.729 175.763 407.642 175.836 407.554 175.903C406.479 176.82 405.266 177.569 403.957 178.125C403.377 178.375 402.779 178.586 402.168 178.755C401.766 178.865 401.352 178.963 400.938 179.036C400.376 179.145 399.808 179.216 399.237 179.25C398.916 179.275 398.59 179.287 398.257 179.287H254.601L247.413 179.667L240.622 179.287H-8.25736C-8.5461 179.287 -8.84113 179.281 -9.12359 179.257C-9.90135 179.214 -10.674 179.107 -11.4335 178.938C-14.5781 178.238 -17.3854 176.517 -19.3959 174.058C-21.4063 171.599 -22.5008 168.548 -22.5 165.403V13.884C-22.4955 10.2031 -20.9934 6.67424 -18.3234 4.07144C-15.6534 1.46864 -12.0333 0.00443374 -8.25736 0H398.257C402.033 0.00443374 405.653 1.46864 408.323 4.07144C410.993 6.67424 412.495 10.2031 412.5 13.884Z" fill="#F2F2F2"/>
<path d="M79.0879 0C56.8122 50.6496 61.084 112.16 79.0879 179.287H204.058C219.686 112.083 227.597 48.5535 204.058 0H79.0879Z" fill="#E4E4E4"/>
<path d="M28.6831 0C-12.0198 48.8297 -0.664155 111.642 28.6831 179.287H79.0879C60.9103 115.382 57.9387 54.942 79.0879 0H28.6831Z" fill="#CACACA"/>
<path d="M180.955 4.15619H162.052V22.5829H180.955V4.15619Z" fill="white"/>
<path d="M150.5 4.15619H131.598V22.5829H150.5V4.15619Z" fill="white"/>
<path d="M120.046 4.15619H101.144V22.5829H120.046V4.15619Z" fill="white"/>
<path d="M180.43 46.1281H161.527V64.5548H180.43V46.1281Z" fill="white"/>
<path d="M149.975 46.1281H131.073V64.5548H149.975V46.1281Z" fill="white"/>
<path d="M119.521 46.1281H100.618V64.5548H119.521V46.1281Z" fill="white"/>
<path d="M179.904 88.1001H161.002V106.527H179.904V88.1001Z" fill="white"/>
<path d="M149.45 88.1001H130.548V106.527H149.45V88.1001Z" fill="white"/>
<path d="M118.996 88.1001H100.093V106.527H118.996V88.1001Z" fill="white"/>
<path d="M179.379 130.072H160.477V148.499H179.379V130.072Z" fill="white"/>
<path d="M148.925 130.072H130.023V148.499H148.925V130.072Z" fill="white"/>
<path d="M118.471 130.072H99.5683V148.499H118.471V130.072Z" fill="white"/>
<path d="M178.855 172.042H159.949V179.287H178.855V172.042Z" fill="white"/>
<path d="M148.399 172.042H129.499V179.287H148.399V172.042Z" fill="white"/>
<path d="M117.943 172.042H99.0426V179.287H117.943V172.042Z" fill="white"/>
<path d="M-22.5 95.2302V165.403C-22.5008 168.548 -21.4063 171.599 -19.3959 174.058C-17.3854 176.517 -14.5781 178.238 -11.4335 178.938C-10.674 179.107 -9.90135 179.214 -9.12359 179.257C-8.84113 179.281 -8.5461 179.287 -8.25736 179.287H46.5351C58.0387 146.447 79.1883 5.50712 -7.43506 17.7451L-22.5 95.2302Z" fill="#E4E4E4"/>
<path d="M21.8574 130.072H2.9548V148.499H21.8574V130.072Z" fill="white"/>
<path d="M21.3327 172.042H2.43245V179.287H21.3327V172.042Z" fill="white"/>
<path d="M412.5 114.915V165.403C412.498 167.723 411.9 170.005 410.761 172.042L409.782 171.241L407.893 169.699L397.435 161.175L400.034 171.614L396.977 171.773L396.738 171.785L391.189 172.079L386.337 172.336H386.318L379.395 172.703L372.634 173.058L370.381 173.174L356.025 173.933L349.905 174.257L347.131 174.404L339.793 174.79L329.95 175.31L328.124 175.408L299.237 176.931L280.864 177.904L278.014 178.051L277.801 178.063L276.639 178.125H276.633L274.116 178.259L270.5 178.449L264.644 178.755L262.058 178.889L254.601 179.287L247.413 179.667L240.622 179.287L218.721 178.063L204.522 177.268L204.058 177.243L178.855 175.836L159.949 174.777L148.399 174.135L129.499 173.076L120.786 172.593L117.943 172.434L110.95 172.042L79.0879 170.262L76.7151 170.127L76.5833 170.121L65.0399 169.478L57.8338 169.075L72.974 155.362L73.1812 155.172L79.0879 149.824C83.3375 142.39 87.4176 134.881 99.5699 131.271L100.894 130.072L119.142 113.544L122.255 113.502L204.058 112.449L216.411 112.29L241.72 111.966L250.891 111.849L257.664 112.235L316.342 115.588L320.165 115.808L339.674 116.922L357.726 117.95L366.307 118.44L368.404 118.562L368.542 118.568L369.596 118.629L372.421 118.385L375.892 118.085L377.179 117.975L377.769 117.92L390.129 116.855L391.164 116.763L394.121 116.506L411.245 139.514L412.5 114.915Z" fill="#3F3D56"/>
<path d="M346.242 169.489C337.546 157.217 331.208 126.058 333.688 113.194C333.58 112.774 338.768 119.831 338.785 119.393C338.867 117.233 340.447 115.558 342.313 115.653L365.763 116.851C366.344 116.9 366.901 117.097 367.379 117.421C367.857 117.745 368.239 118.186 368.488 118.7L386.218 151.799C386.498 152.328 386.666 152.907 386.712 153.501C386.885 155.654 385.517 157.563 383.657 157.763L352.216 161.148C352.112 161.159 352.008 161.165 351.904 161.165C350.41 161.161 346.674 171.144 346.242 169.489Z" fill="white"/>
<path d="M246.418 169.374L246.649 170.592L247.541 175.279C247.721 176.232 248 177.165 248.374 178.063C248.485 178.345 248.612 178.62 248.746 178.889C248.813 179.024 248.88 179.153 248.954 179.287H313.335L324.021 178.082L324.155 178.063C326.357 177.768 328.404 176.79 329.992 175.273C331.31 173.994 332.355 172.474 333.068 170.8C333.782 169.127 334.149 167.332 334.149 165.519C334.164 165.013 334.149 164.506 334.104 164.002C334.046 163.287 333.932 162.577 333.762 161.879C334.965 148.57 331.796 135.596 324.504 122.937C323.906 120.231 322.443 117.78 320.325 115.937C318.585 114.435 316.371 113.559 314.049 113.453L262.079 111.372C260.099 111.31 258.146 111.828 256.472 112.859C253.289 114.78 250.976 118.403 250.523 122.76C246.148 136.454 244.688 150.876 246.232 165.14C246.089 166.553 246.152 167.979 246.418 169.374Z" fill="white"/>
<path d="M227.391 175.614L93.8576 171.826C92.1789 171.778 67.3513 181.328 66.1459 179.843C63.5064 176.59 63.442 171.235 66.0021 167.881L124.336 111.488C124.871 110.725 125.582 110.095 126.412 109.648C127.242 109.202 128.168 108.952 129.115 108.918H236.604C237.113 108.919 237.618 108.992 238.105 109.136C241.687 110.189 243.92 114.732 243.091 119.284L234.026 169.063C233.319 172.892 230.635 175.603 227.539 175.616C227.49 175.616 227.441 175.615 227.391 175.614Z" fill="white"/>
<path d="M366.988 120.752L253.501 113.122L119.142 113.546C135.669 96.5091 208.312 75.7376 286.112 100.83C363.944 103.373 369.597 118.632 369.597 118.632L370.568 120.115L366.988 120.752Z" fill="black"/>
<path d="M411.948 169.221C411.662 170.202 411.264 171.148 410.761 172.042C409.997 173.409 409.002 174.64 407.817 175.683C407.729 175.763 407.642 175.836 407.554 175.903C406.479 176.82 405.266 177.569 403.957 178.125C403.377 178.375 402.779 178.586 402.168 178.755C401.766 178.865 401.352 178.963 400.938 179.036C400.376 179.145 399.808 179.216 399.237 179.25C398.916 179.275 398.59 179.287 398.257 179.287H254.601L247.413 179.667L240.622 179.287H-8.25736C-8.54611 179.287 -8.84113 179.281 -9.1236 179.257C-9.90136 179.214 -10.6741 179.107 -11.4336 178.938L-9.1236 178.608L-5.29459 178.063L2.43246 176.962L21.3327 174.27L28.6831 173.223L46.5351 170.684L49.5167 170.262L57.8338 169.075L65.1717 169.215L76.4013 169.436H76.5394L79.0879 169.484L96.1552 169.815L102.426 169.937L148.424 170.825L152.63 170.904L158.901 171.026L178.868 171.418L204.058 171.902L205.74 171.932L232.713 172.458L233.064 172.464L246.823 171.516L260.288 170.592L270.488 169.894L273.777 169.668L273.903 169.662L274.631 169.613L275.108 169.576L279.113 169.301L294.096 168.273L300.768 167.814L303.643 167.618L306.65 167.41L334.15 165.519L341.808 164.993H341.814L346.001 164.706L353.678 164.179H353.684L361.574 163.635H361.581L364.644 163.427L365.818 163.347L374.756 162.735L380.161 162.362L389.438 161.726L392.307 161.53L396.161 161.261L397.215 161.187L397.435 161.175C397.435 161.175 400.661 161.242 404.867 163.518C406.199 164.242 407.458 165.086 408.627 166.04C409.437 166.696 410.209 167.397 410.937 168.138C411.276 168.481 411.609 168.842 411.948 169.221Z" fill="black"/>
<path d="M269.64 179.287H279.376L278.485 178.479L278.027 178.063L278.014 178.051L275.961 176.197L274.329 174.716L273.005 176.007L272.471 176.527L270.896 178.063L270.5 178.449L269.64 179.287Z" fill="#CACACA"/>
<path d="M322.977 179.287H337.947L340.251 178.063L347.131 174.404L348.75 173.541L361.574 163.635H361.581L364.801 161.15L366.47 159.859L368.536 158.262L378.736 150.387C379.018 150.169 379.281 149.927 379.52 149.665C380.076 149.052 380.497 148.334 380.758 147.557C381.019 146.779 381.115 145.958 381.039 145.143C381.035 145.073 381.025 145.003 381.008 144.935C380.896 144.038 380.578 143.178 380.077 142.418C379.576 141.658 378.905 141.019 378.114 140.548C377 139.881 375.697 139.577 374.394 139.68C373.091 139.782 371.855 140.285 370.864 141.117L363.382 147.266L360.394 149.72L348.826 159.229L341.814 164.993H341.808L340.471 166.095L328.124 175.408L324.596 178.063L322.977 179.287Z" fill="#FFB6B6"/>
<path d="M374.809 157.792C375.204 157.845 375.606 157.77 375.953 157.579C376.3 157.387 376.573 157.09 376.73 156.733C376.932 156.296 377.27 155.931 377.695 155.69C377.778 155.644 377.863 155.604 377.952 155.569C378.488 155.372 378.968 155.051 379.351 154.635C379.733 154.218 380.007 153.718 380.149 153.176C380.589 151.387 381.999 149.651 383.417 148.312C384.968 146.847 386.624 145.442 387.771 143.658C389.425 141.084 389.889 137.472 386.698 135.324C385.326 134.431 383.681 134.027 382.039 134.178C378.601 134.451 375.759 136.496 373.059 138.477L373.735 137.184C370.824 139.398 367.485 141.016 363.917 141.942C364.534 142.489 363.999 143.583 363.206 143.838C362.414 144.092 361.56 143.824 360.744 143.655C359.715 143.442 358.443 143.46 358.038 144.658C357.949 144.947 357.922 145.251 357.96 145.55C357.997 145.85 358.098 146.138 358.255 146.398C361.121 151.37 365.011 155.71 369.681 159.146C370.718 159.908 371.923 160.659 373.213 160.509C374.503 160.36 375.601 158.797 374.809 157.792Z" fill="black"/>
<path d="M371.963 167.918L372.634 173.058L373.287 178.063L373.356 178.596L373.45 179.287H398.257C398.59 179.287 398.916 179.275 399.237 179.25C399.808 179.216 400.376 179.145 400.938 179.036L401.22 177.733L401.383 176.956L391.007 173.768L386.337 172.336H386.325L379.577 170.255L371.963 167.918Z" fill="#FFB6B6"/>
<path d="M362.327 155.839C362.836 156.934 363.52 158.397 364.286 160.055C364.455 160.41 364.625 160.777 364.801 161.15C365.127 161.86 365.466 162.594 365.818 163.347C367.368 166.694 369.056 170.329 370.381 173.174C371.479 175.555 372.333 177.39 372.641 178.063C372.735 178.253 372.779 178.351 372.779 178.351L373.356 178.596L375.007 179.287H398.257C398.59 179.287 398.916 179.275 399.237 179.25C399.808 179.216 400.376 179.145 400.938 179.036C401.352 178.963 401.766 178.865 402.168 178.755C402.779 178.586 403.377 178.375 403.957 178.125C405.266 177.569 406.479 176.82 407.554 175.903C407.604 175.481 407.704 174.802 407.811 173.976C407.979 172.742 408.069 171.5 408.081 170.255C408.081 169.258 405.57 167.643 404.867 163.518C404.631 162.012 404.629 160.479 404.861 158.972C406.16 149.683 405.702 135.469 396.519 132.691L389.915 121.42H377.317L375.271 127.3V127.306L374.097 130.678L373.394 132.691L373.243 132.887L368.749 138.632C368.749 138.632 368.033 139.52 367.054 140.921V140.927C365.641 142.931 364.412 145.052 363.382 147.266C362.71 148.701 362.225 150.212 361.938 151.764C361.658 153.13 361.794 154.547 362.327 155.839Z" fill="#2F2E41"/>
<path d="M388.877 110.06C379.621 116.924 369.313 122.387 367.37 129.941C367.37 129.941 368.533 118.072 363.104 120.322C353.982 124.102 357.068 103.545 359.626 100.183C363.89 94.5809 378.267 91.3975 378.267 91.3975L388.466 96.8554L388.877 110.06Z" fill="#2F2E41"/>
<path d="M372.759 118.39C381.588 118.39 388.745 111.413 388.745 102.806C388.745 94.1993 381.588 87.2223 372.759 87.2223C363.93 87.2223 356.773 94.1993 356.773 102.806C356.773 111.413 363.93 118.39 372.759 118.39Z" fill="#FFB6B6"/>
<path d="M378.516 96.8433L379.132 99.4772L368.378 101.864C368.368 101.331 368.246 100.806 368.018 100.322C367.791 99.8371 367.463 99.4038 367.056 99.0488C367.288 100.082 367.261 101.154 366.978 102.174C361.179 105.347 361.512 106.471 356.825 105.662C356.511 105.731 356.185 105.74 355.867 105.687C355.549 105.634 355.245 105.521 354.972 105.354C354.699 105.186 354.463 104.968 354.276 104.712C354.09 104.455 353.957 104.165 353.886 103.859C352 95.7835 351.38 87.5299 359.623 85.5254C361.627 85.037 363.711 84.9435 365.752 85.2504C367.793 85.5572 369.751 86.2583 371.511 87.3124C373.27 88.3666 374.797 89.7526 376 91.3892C377.203 93.0258 378.058 94.8801 378.516 96.8433Z" fill="#2F2E41"/>
<path d="M375.886 107.352C375.36 105.102 374.328 102.995 372.864 101.181C371.401 99.3675 369.543 97.8931 367.424 96.8643C365.306 95.8355 362.979 95.278 360.613 95.2319C358.246 95.1858 355.899 95.6523 353.74 96.5977C354.488 94.446 356.001 92.6265 358.006 91.4686L370.111 86.3458C376.081 85.0208 385.533 81.2601 389.845 84.8615C393.819 88.1699 391.885 94.646 395.544 98.2729C399.553 102.248 399.894 106.948 398.757 109.651C397.441 112.778 394.809 117.045 391.525 117.968C391.354 116.868 390.791 115.861 389.934 115.125C390.171 116.174 390.192 117.258 389.995 118.315L370.111 133.774C371.968 132.2 373.55 128.143 374.64 123.573C375.285 120.868 379.133 119.919 376.012 115.328C372.891 110.738 376.31 109.167 375.886 107.352Z" fill="#2F2E41"/>
<path d="M391.812 90.1087L391.756 90.2174C391.688 90.3625 391.62 90.5074 391.564 90.6585L391.558 90.6645C391.254 90.7733 390.914 90.5981 390.579 90.3201C390.631 90.9735 390.668 91.6058 390.696 92.2254L380.11 88.1873C381.951 88.4971 382.224 82.1121 383.544 83.3356C383.618 83.4021 383.687 83.4685 383.755 83.535C383.59 83.15 383.478 82.7458 383.42 82.3326C383.364 81.814 383.406 81.2897 383.544 80.7859C383.546 80.7835 383.548 80.7806 383.549 80.7775C383.55 80.7744 383.551 80.771 383.55 80.7678C383.682 80.3122 383.887 79.8799 384.158 79.4868C384.548 78.9152 385.041 78.4177 385.614 78.0186C386.345 77.4741 387.197 77.105 388.102 76.9413C389.006 76.7775 389.938 76.8237 390.821 77.0761C392.843 77.8218 394.514 79.2641 395.519 81.1302C396.434 82.5664 396.901 84.2311 396.864 85.9216C396.826 86.3652 396.728 86.802 396.572 87.2206C396.379 87.8085 396.049 88.3449 395.608 88.7882C395.168 89.2315 394.628 89.5697 394.031 89.7764C393.882 89.8247 393.709 89.8791 393.523 89.9455C393.424 89.1593 393.418 88.3647 393.504 87.5771C392.815 88.3349 392.245 89.188 391.812 90.1087Z" fill="#2F2E41"/>
<path d="M381.561 87.7765C381.574 88.1135 381.616 88.4489 381.685 88.7795C381.69 88.8223 381.698 88.8647 381.709 88.9064C382.143 90.7854 384.492 86.8762 386.308 88.1874C387.44 88.9822 388.696 89.5943 390.027 90C390.083 89.8489 390.579 90.145 390.647 90C390.666 89.9637 390.628 89.432 390.647 89.3958C389.514 88.9707 388.466 88.3574 387.548 87.5832C385.844 86.3566 386.085 87.5046 385.689 85.7706C385.23 83.7707 382.528 84.6286 383.916 83.68L383.755 83.4625C382.769 84.1262 382.042 85.0949 381.691 86.2116C381.691 86.2149 381.691 86.2182 381.69 86.2214C381.689 86.2245 381.687 86.2274 381.685 86.2298C381.581 86.7388 381.539 87.258 381.561 87.7765Z" fill="black"/>
<path d="M378.905 179.287H390.424L390.555 178.063L391.007 173.768L391.189 172.079L391.968 164.73L392.307 161.53L393.054 154.475L393.305 152.1C393.465 150.528 392.984 148.958 391.968 147.727C390.951 146.497 389.479 145.705 387.869 145.522C387.635 145.496 387.401 145.482 387.166 145.48H387.147C386.862 145.483 386.577 145.501 386.293 145.535C384.842 145.738 383.512 146.436 382.54 147.505C381.621 148.508 381.076 149.785 380.995 151.127L380.989 151.219V151.225L380.443 158.593L380.161 162.362L380.01 164.449L379.577 170.256L379.395 172.703L378.999 178.063L378.905 179.287Z" fill="#FFB6B6"/>
<path d="M395.998 160.014C396.312 159.775 396.538 159.442 396.64 159.066C396.741 158.69 396.714 158.292 396.561 157.933C396.381 157.487 396.348 156.997 396.468 156.531C396.492 156.442 396.522 156.354 396.558 156.268C396.788 155.756 396.888 155.197 396.849 154.639C396.81 154.081 396.634 153.541 396.335 153.064C395.327 151.508 395.037 149.311 395.043 147.387C395.05 145.282 395.174 143.145 394.664 141.099C393.927 138.148 391.598 135.303 387.793 136.031C386.18 136.365 384.734 137.231 383.699 138.483C381.5 141.073 381.018 144.484 380.588 147.752L380.11 146.378C379.705 149.955 378.562 153.416 376.752 156.552C377.584 156.503 378.015 157.641 377.649 158.371C377.282 159.102 376.489 159.511 375.795 159.963C374.921 160.532 374.046 161.433 374.643 162.552C374.793 162.816 374.998 163.046 375.244 163.229C375.49 163.412 375.772 163.544 376.073 163.615C381.726 165.085 387.629 165.399 393.412 164.538C394.697 164.346 396.088 164.029 396.88 163.024C397.671 162.02 397.288 160.162 395.998 160.014Z" fill="black"/>
<path d="M273.777 172.789C273.777 174.512 274.479 176.165 275.73 177.384C276.98 178.602 278.675 179.287 280.443 179.287H294.102C295.87 179.287 297.566 178.602 298.816 177.384C300.066 176.165 300.768 174.512 300.768 172.789V167.834C300.768 166.786 300.508 165.753 300.01 164.823C299.511 163.894 298.79 163.096 297.906 162.498C297.023 161.899 296.004 161.518 294.937 161.387C293.869 161.256 292.786 161.378 291.777 161.744L278.119 166.698C276.844 167.16 275.745 167.992 274.969 169.08C274.193 170.169 273.777 171.463 273.777 172.789Z" fill="#CACACA"/>
<path d="M-8.25736 178.063C-8.5461 178.063 -8.83485 178.051 -9.12359 178.033V178.608L-5.29459 178.063H-8.25736ZM46.5351 178.063V179.287H79.0879V178.063H46.5351ZM218.721 178.063L240.622 179.287H254.601L262.058 178.889L264.644 178.755L270.5 178.449L274.116 178.259L276.633 178.125H276.639L277.801 178.063H218.721ZM398.257 178.063H397.077L397.146 179.287H398.257C398.59 179.287 398.916 179.275 399.237 179.25L399.293 178.486L399.331 178.014C398.974 178.049 398.616 178.066 398.257 178.063ZM-8.25736 178.063C-8.5461 178.063 -8.83485 178.051 -9.12359 178.033V178.608L-5.29459 178.063H-8.25736ZM46.5351 178.063V179.287H79.0879V178.063H46.5351ZM218.721 178.063L240.622 179.287H254.601L262.058 178.889L264.644 178.755L270.5 178.449L274.116 178.259L276.633 178.125H276.639L277.801 178.063H218.721ZM-8.25736 178.063C-8.5461 178.063 -8.83485 178.051 -9.12359 178.033V178.608L-5.29459 178.063H-8.25736ZM2.43247 178.063V179.287H117.943V178.063H2.43247ZM218.721 178.063L240.622 179.287H254.601L262.058 178.889L264.644 178.755L270.5 178.449L274.116 178.259L276.633 178.125H276.639L277.801 178.063H218.721ZM398.257 178.063H349.07C349.001 178.467 348.939 178.877 348.882 179.287H398.257C398.59 179.287 398.916 179.275 399.237 179.25L399.293 178.486L399.331 178.014C398.974 178.049 398.616 178.066 398.257 178.063ZM-8.25736 178.063C-8.5461 178.063 -8.83485 178.051 -9.12359 178.033V178.608L-5.29459 178.063H-8.25736ZM-8.25736 178.063C-8.5461 178.063 -8.83485 178.051 -9.12359 178.033V178.608L-5.29459 178.063H-8.25736ZM-8.25736 178.063C-8.5461 178.063 -8.83485 178.051 -9.12359 178.033V178.608L-5.29459 178.063H-8.25736ZM-8.25736 178.063C-8.5461 178.063 -8.83485 178.051 -9.12359 178.033V178.608L-5.29459 178.063H-8.25736ZM-8.25736 178.063C-8.5461 178.063 -8.83485 178.051 -9.12359 178.033V178.608L-5.29459 178.063H-8.25736ZM-8.25736 178.063C-8.5461 178.063 -8.83485 178.051 -9.12359 178.033V178.608L-5.29459 178.063H-8.25736ZM-8.25736 178.063C-8.5461 178.063 -8.83485 178.051 -9.12359 178.033V178.608L-5.29459 178.063H-8.25736ZM-8.25736 178.063C-8.5461 178.063 -8.83485 178.051 -9.12359 178.033C-11.1892 177.9 -13.1922 177.288 -14.9647 176.245C-16.7373 175.203 -18.2278 173.762 -19.3113 172.042H-20.7675C-19.7981 173.768 -18.4654 175.275 -16.8568 176.463C-15.2482 177.651 -13.4 178.495 -11.4335 178.938L-9.12359 178.608L-5.29459 178.063H-8.25736ZM398.257 0H-8.25736C-12.0333 0.00443374 -15.6534 1.46864 -18.3234 4.07144C-20.9934 6.67424 -22.4955 10.2031 -22.5 13.884V165.403C-22.5008 168.548 -21.4063 171.599 -19.3959 174.058C-17.3854 176.517 -14.5781 178.238 -11.4335 178.938C-10.674 179.107 -9.90135 179.214 -9.12359 179.257C-8.84113 179.281 -8.5461 179.287 -8.25736 179.287H398.257C398.59 179.287 398.916 179.275 399.237 179.25C399.808 179.216 400.376 179.145 400.938 179.036C401.352 178.963 401.766 178.865 402.168 178.755C402.779 178.586 403.377 178.375 403.957 178.125C405.266 177.569 406.479 176.82 407.554 175.903C407.642 175.836 407.729 175.763 407.817 175.683C409.002 174.64 409.997 173.409 410.761 172.042C411.9 170.005 412.498 167.723 412.5 165.403V13.884C412.495 10.2031 410.993 6.67424 408.323 4.07144C405.653 1.46864 402.033 0.00443374 398.257 0ZM411.245 165.403C411.245 166.323 411.142 167.24 410.937 168.138C410.697 169.218 410.308 170.262 409.782 171.241C409.293 172.161 408.688 173.018 407.981 173.792V173.798L407.974 173.805C407.924 173.86 407.868 173.921 407.811 173.976C406.261 175.626 404.287 176.843 402.093 177.5C401.892 177.562 401.691 177.617 401.49 177.672C401.402 177.696 401.314 177.715 401.22 177.733C400.599 177.874 399.967 177.968 399.331 178.014C398.974 178.049 398.616 178.066 398.257 178.063H-8.25736C-8.5461 178.063 -8.83485 178.051 -9.12359 178.033C-12.4097 177.817 -15.4892 176.393 -17.7393 174.048C-19.9894 171.704 -21.2423 168.614 -21.2446 165.403V96.4846C-21.2446 96.0624 -21.2446 95.6463 -21.2383 95.2302C-20.9111 70.1811 -10.4707 46.2668 7.82005 28.6701C26.1109 11.0735 50.7784 1.21234 76.4766 1.2238H398.257C399.963 1.22347 401.652 1.55071 403.228 2.18683C404.804 2.82295 406.235 3.75548 407.441 4.93116C408.648 6.10684 409.604 7.50263 410.257 9.03879C410.909 10.5749 411.245 12.2214 411.245 13.884L411.245 165.403ZM-8.25736 178.063C-8.5461 178.063 -8.83485 178.051 -9.12359 178.033V178.608L-5.29459 178.063H-8.25736ZM-8.25736 178.063C-8.5461 178.063 -8.83485 178.051 -9.12359 178.033V178.608L-5.29459 178.063H-8.25736ZM-8.25736 178.063C-8.5461 178.063 -8.83485 178.051 -9.12359 178.033V178.608L-5.29459 178.063H-8.25736ZM-8.25736 178.063C-8.5461 178.063 -8.83485 178.051 -9.12359 178.033V178.608L-5.29459 178.063H-8.25736ZM-8.25736 178.063C-8.5461 178.063 -8.83485 178.051 -9.12359 178.033V178.608L-5.29459 178.063H-8.25736ZM-8.25736 178.063C-8.5461 178.063 -8.83485 178.051 -9.12359 178.033V178.608L-5.29459 178.063H-8.25736ZM-8.25736 178.063C-8.5461 178.063 -8.83485 178.051 -9.12359 178.033V178.608L-5.29459 178.063H-8.25736ZM-8.25736 178.063C-8.5461 178.063 -8.83485 178.051 -9.12359 178.033V178.608L-5.29459 178.063H-8.25736ZM218.721 178.063L240.622 179.287H254.601L262.058 178.889L264.644 178.755L270.5 178.449L274.116 178.259L276.633 178.125H276.639L277.801 178.063H218.721ZM46.5351 178.063V179.287H79.0879V178.063H46.5351ZM-8.25736 178.063C-8.5461 178.063 -8.83485 178.051 -9.12359 178.033V178.608L-5.29459 178.063H-8.25736ZM218.721 178.063L240.622 179.287H254.601L262.058 178.889L264.644 178.755L270.5 178.449L274.116 178.259L276.633 178.125H276.639L277.801 178.063H218.721ZM46.5351 178.063V179.287H79.0879V178.063H46.5351ZM-8.25736 178.063C-8.5461 178.063 -8.83485 178.051 -9.12359 178.033V178.608L-5.29459 178.063H-8.25736ZM398.257 178.063H397.077L397.146 179.287H398.257C398.59 179.287 398.916 179.275 399.237 179.25L399.293 178.486L399.331 178.014C398.974 178.049 398.616 178.066 398.257 178.063ZM218.721 178.063L240.622 179.287H254.601L262.058 178.889L264.644 178.755L270.5 178.449L274.116 178.259L276.633 178.125H276.639L277.801 178.063H218.721ZM46.5351 178.063V179.287H79.0879V178.063H46.5351Z" fill="#3F3D56"/>
</g>
<defs>
<clipPath id="clip0_120_479">
<rect width="435" height="180" fill="white" transform="translate(-22.5)"/>
</clipPath>
</defs>
</svg>
